2.2Hzlow3min_grf.mot
version=1
nRows=17
nColumns 19
inDegrees=yes
endheader
time	1_ground_force_vx	1_ground_force_vy	1_ground_force_vz	1_ground_force_px	1_ground_force_py	1_ground_force_pz	1_ground_torque_x	1_ground_torque_y	1_ground_torque_z	2_ground_force_vx	2_ground_force_vy	2_ground_force_vz	2_ground_force_px	2_ground_force_py	2_ground_force_pz	2_ground_torque_x	2_ground_torque_y	2_ground_torque_z
            1.253500	            0.318623	            8.113394	           -0.287005	           -0.233013	            0.005581	           -0.255695	            0.102848	           -0.333331	            0.180893	            0.170681	            4.605222	           -0.218294	           -0.232311	            0.006130	           -0.833667	           -0.187129	           -0.199252	            0.018222
            1.254000	            0.319144	            7.752076	           -0.105127	           -0.233013	            0.005581	           -0.255695	            0.301658	           -0.333125	            0.142817	           -0.014080	            3.868119	           -0.267770	           -0.232311	            0.006130	           -0.833667	           -0.205820	           -0.227611	           -0.000722
            1.254500	            0.411303	            7.030441	            0.029122	           -0.233013	            0.005581	           -0.255695	            0.296402	           -0.314834	            0.203238	            0.220190	            3.868797	           -0.220942	           -0.232311	            0.006130	           -0.833667	           -0.130762	           -0.217483	           -0.113821
            1.255000	            0.318932	            8.293069	           -0.148664	           -0.233013	            0.005581	           -0.255695	            0.321986	           -0.305311	            0.124068	            0.127922	            3.499326	            0.012424	           -0.232311	            0.006130	           -0.833667	           -0.168428	           -0.180144	           -0.019419
            1.255500	            0.090468	            6.669848	            0.028372	           -0.233013	            0.005581	           -0.255695	            0.315044	           -0.305170	            0.057976	            0.075693	            4.972845	           -0.123084	           -0.232311	            0.006130	           -0.833667	           -0.205915	           -0.190136	            0.093664
            1.256000	            0.319357	            7.211082	           -0.061590	           -0.233013	            0.005581	           -0.255695	            0.300187	           -0.314878	            0.199312	            0.125805	            4.052775	           -0.267173	           -0.232311	            0.006130	           -0.833667	           -0.205924	           -0.190069	            0.074814
            1.256500	            0.227360	            8.292855	           -0.102580	           -0.233013	            0.005581	           -0.255695	            0.282246	           -0.314200	            0.026229	            0.360842	            3.868468	            0.013639	           -0.232311	            0.006130	           -0.833667	           -0.224657	           -0.208908	            0.037054
            1.257000	            0.226952	            8.653976	           -0.238602	           -0.233013	            0.005581	           -0.255695	            0.363253	           -0.342403	            0.138683	            0.264463	            4.604890	           -0.030621	           -0.232311	            0.006130	           -0.833667	           -0.112012	           -0.198779	           -0.038361
            1.257500	            0.410504	            8.293284	           -0.194747	           -0.233013	            0.005581	           -0.255695	            0.267925	           -0.361225	            0.240661	            0.172737	            4.052275	           -0.079481	           -0.232311	            0.006130	           -0.833667	           -0.130652	           -0.245909	           -0.095072
            1.258000	            0.135428	            9.014097	           -0.145117	           -0.233013	            0.005581	           -0.255695	            0.302540	           -0.277347	            0.041200	            0.175937	            3.132537	           -0.364335	           -0.232311	            0.006130	           -0.833667	           -0.187145	           -0.199118	           -0.019479
            1.258500	            0.319079	            8.112607	           -0.103581	           -0.233013	            0.005581	           -0.255695	            0.245144	           -0.259269	            0.162059	            0.080284	            3.684309	           -0.268467	           -0.232311	            0.006130	           -0.833667	           -0.224726	           -0.180819	            0.112556
            1.259000	            0.227863	            8.652403	            0.128245	           -0.233013	            0.005581	           -0.255695	            0.272376	           -0.305192	            0.082674	            0.360698	            3.869640	           -0.314858	           -0.232311	            0.006130	           -0.833667	           -0.168531	           -0.151786	           -0.019318
            1.259500	            0.044883	            7.750646	            0.216547	           -0.233013	            0.005581	           -0.255695	            0.250393	           -0.305519	            0.131334	            0.080949	            3.500161	           -0.269124	           -0.232311	            0.006130	           -0.833667	           -0.243384	           -0.218630	            0.093579
            1.260000	            0.319486	            7.751486	            0.032441	           -0.233013	            0.005581	           -0.255695	            0.258303	           -0.379426	            0.161524	            0.171346	            4.421073	           -0.218951	           -0.232311	            0.006130	           -0.833667	           -0.205795	           -0.227813	            0.055829
            1.260500	            0.456461	            8.293096	           -0.149005	           -0.233013	            0.005581	           -0.255695	            0.247149	           -0.324152	            0.224028	            0.407027	            4.052786	            0.014276	           -0.232311	            0.006130	           -0.833667	           -0.187070	           -0.208907	            0.074739
            1.261000	            0.686068	            7.391419	           -0.061727	           -0.233013	            0.005581	           -0.255695	            0.319032	           -0.370408	            0.271053	            0.221478	            3.500836	           -0.316112	           -0.232311	            0.006130	           -0.833667	           -0.205873	           -0.199656	            0.112481
            1.261500	            0.502762	            7.030852	           -0.062818	           -0.233013	            0.005581	           -0.255695	            0.149778	           -0.341909	            0.057010	            0.501933	            3.685831	           -0.268647	           -0.232311	            0.006130	           -0.833667	           -0.205880	           -0.208773	            0.018196
